<mxfile host="app.diagrams.net" modified="2023-11-14T01:45:02.080Z" agent="Mozilla/5.0 (Windows NT 10.0; Win64; x64) AppleWebKit/537.36 (KHTML, like Gecko) Chrome/119.0.0.0 Safari/537.36 Edg/119.0.0.0" version="22.1.0" etag="0KXQObax3JFnUht1aRoO" type="github">
  <diagram name="Page-1" id="uZYeZ813TJtS90aaXMd2">
    <mxGraphModel>
      <root>
        <mxCell id="0" />
        <mxCell id="1" parent="0" />
      </root>
    </mxGraphModel>
  </diagram>
</mxfile>
